<svg width="1000" height="1000" viewBox="0 0 1000 1000" xmlns="http://www.w3.org/2000/svg">
    <style>
        .red {
            fill: #cb3c33;
            stroke-width: 0.11vw;
        }

        .green{
            fill: #389826;
            stroke-width: 0.11vw;
        }

        .blue{
            fill: #4063d8;
            stroke-width: 0.11vw;
        }

        .violet{
            fill: #9558b2;
            stroke-width: 0.11vw;
        }

        .title{
            stroke-linecap: round;
            fill-rule: evenodd;
            font-size: 9pt;
            font-size: 180px;
            text-anchor: middle;
            fill: #4063d8;
            stroke: #000;
            stroke-width: 0.2vw;
        }

        .border{
            stroke: #000;
        }

        .shadow{
            fill: #000;
            stroke: #000;
        }

        .mask{
            stroke-width: 2vw;
            fill: #000;
            stroke: #000;
        }

        .clear{
            fill: white;
        }
    </style>
    <g class="title" transform="scale(2.08,3.37)">
        <g id="pseudo" transform="scale(1.18,1.3) translate(1,0)">
            <path d="M 33.84 1.084 L 0 1.084 L 0 4.444 A 14.523 14.523 0 0 1 4.25 5.013 C 7.864 6.118 9.747 8.742 10.624 12.144 A 24.708 24.708 0 0 1 11.28 18.244 L 11.28 68.044 A 23.458 23.458 0 0 1 10.457 74.74 C 9.493 77.931 7.554 80.356 3.987 81.351 A 14.833 14.833 0 0 1 0 81.844 L 0 85.084 L 45.24 85.084 L 45.24 81.844 C 37.943 81.844 33.565 78.848 32.107 72.979 A 20.498 20.498 0 0 1 31.56 68.044 L 31.56 53.044 L 33.84 53.044 C 60.72 53.044 74.28 43.924 74.28 27.124 A 21.973 21.973 0 0 0 61.451 6.21 C 54.81 2.829 45.6 1.084 33.84 1.084 Z M 33.36 48.244 L 31.56 48.244 L 31.56 5.884 L 33.36 5.884 A 26.87 26.87 0 0 1 40.882 6.848 C 47.013 8.636 50.567 12.838 52.112 18.865 A 33.385 33.385 0 0 1 53.04 27.124 A 31.744 31.744 0 0 1 51.89 36.118 C 50.177 41.889 46.467 45.87 40.205 47.465 A 27.743 27.743 0 0 1 33.36 48.244 Z" id="0" vector-effect="non-scaling-stroke"/>
            <path d="M 112.2 48.124 L 115.08 48.124 L 113.88 29.524 L 111.84 29.524 C 110.786 33.976 109.045 30.649 101.703 29.596 A 27.349 27.349 0 0 0 101.16 29.524 C 90.6 28.324 78.72 30.964 77.28 42.604 A 16.808 16.808 0 0 0 77.173 44.149 C 76.944 54.605 87.123 59.591 94.68 63.484 A 178.538 178.538 0 0 0 94.741 63.515 C 102.963 67.739 108.293 69.672 107.678 75.647 A 10.211 10.211 0 0 1 107.64 75.964 A 5.418 5.418 0 0 1 105.179 79.696 C 102.973 81.247 99.495 82.064 95.52 81.844 C 90.72 81.484 85.2 80.044 84.48 76.804 C 83.792 73.362 85.955 70.908 89.186 70.908 A 6.593 6.593 0 0 1 89.64 70.924 A 9.872 9.872 0 0 0 84.71 62.041 C 83.667 61.48 82.441 61.073 81.018 60.863 A 14 14 0 0 0 80.88 60.844 A 10.569 10.569 0 0 0 79.361 60.729 C 72.818 60.714 68.167 67 69.84 73.804 C 71.76 81.724 85.2 85.684 95.16 86.164 A 59.73 59.73 0 0 0 98.662 86.267 C 104.767 86.267 111.225 85.315 116.26 82.82 A 15.106 15.106 0 0 0 125.04 72.244 C 127.763 58.983 115.3 54.367 106.898 49.751 A 65.576 65.576 0 0 1 106.56 49.564 A 204.589 204.589 0 0 0 106.489 49.525 C 98.25 44.991 93.002 42.83 93.6 38.164 C 93.94 34.99 96.636 33.529 100.473 33.883 A 13.831 13.831 0 0 1 101.16 33.964 A 10.942 10.942 0 0 1 106.024 35.575 C 108.929 37.482 110.665 41.135 112.05 47.425 A 72.295 72.295 0 0 1 112.2 48.124 Z" id="1" vector-effect="non-scaling-stroke"/>
            <path d="M 170.159 73.468 A 24.097 24.097 0 0 0 186 66.244 A 27.119 27.119 0 0 1 186.025 66.263 C 186.245 66.432 187.818 67.641 188.019 67.887 A 0.079 0.079 0 0 1 188.04 67.924 A 34.649 34.649 0 0 1 187.73 68.608 C 183.639 77.386 175.066 86.164 160.68 86.164 A 36.303 36.303 0 0 1 147.284 83.734 A 27.673 27.673 0 0 1 129.36 60.124 C 128.298 47.915 133.706 38.917 142.372 33.947 A 35.818 35.818 0 0 1 160.2 29.524 C 175.854 29.524 186.504 37.712 186.504 52.759 A 32.873 32.873 0 0 1 186.48 54.004 L 149.4 60.244 A 14.852 14.852 0 0 0 155.331 69.684 C 159.315 72.617 164.737 73.875 170.159 73.468 Z M 168.36 52.204 L 148.68 55.564 C 147.749 48.191 148.775 41.571 151.661 37.619 A 8.752 8.752 0 0 1 158.04 33.844 C 166.134 33.14 168.839 40.349 168.395 51.435 A 63.791 63.791 0 0 1 168.36 52.204 Z" id="2" vector-effect="non-scaling-stroke"/>
            <path d="M 256.8 67.924 L 256.8 29.524 L 253.56 29.524 A 38.31 38.31 0 0 1 241.547 36.355 C 237.354 37.872 233.161 38.693 229.715 38.854 A 26.419 26.419 0 0 1 228.48 38.884 L 228.48 42.124 C 237.6 42.124 237.36 48.364 237.36 55.924 L 237.36 62.164 C 237.36 70.084 234.96 76.444 227.64 76.444 A 11.553 11.553 0 0 1 223.669 75.81 C 220.427 74.63 218.744 71.907 217.979 68.526 A 25.291 25.291 0 0 1 217.44 63.004 L 217.44 29.524 L 214.2 29.524 C 207 35.884 196.2 38.884 189.24 38.884 L 189.24 42.124 C 198.36 42.124 198.12 48.364 198.12 55.924 L 198.12 64.924 A 29.75 29.75 0 0 0 199.185 72.933 C 201.852 82.182 209.294 86.164 218.88 86.164 C 228.6 86.164 234.36 81.724 237.84 76.564 C 239.4 83.284 244.8 86.164 252.84 86.164 A 17.881 17.881 0 0 0 257.939 85.495 C 261.818 84.345 264.57 81.682 266.64 77.284 L 264.6 76.084 C 263.4 78.124 261.84 79.204 259.8 78.604 A 3.482 3.482 0 0 1 257.492 76.118 C 256.843 74.209 256.8 71.366 256.8 67.924 Z" id="3" vector-effect="non-scaling-stroke"/>
            <path d="M 331.2 67.924 L 331.2 1.084 L 327.96 1.084 C 320.64 7.564 308.4 10.444 301.44 10.444 L 301.44 13.804 A 14.121 14.121 0 0 1 305.319 14.286 C 309.289 15.42 310.867 18.461 311.449 22.385 A 36.072 36.072 0 0 1 311.76 27.604 L 311.76 35.764 A 21.807 21.807 0 0 0 305.088 31.214 A 22.669 22.669 0 0 0 299.04 29.524 A 31.106 31.106 0 0 0 295.326 29.232 C 279.651 28.958 268.655 41.167 267.883 56.154 A 32.877 32.877 0 0 0 267.84 57.844 C 267.84 71.822 276.767 82.032 290.087 85.161 A 39.148 39.148 0 0 0 299.04 86.164 A 22.261 22.261 0 0 0 308.058 84.264 A 23.04 23.04 0 0 0 313.92 80.524 C 316.44 84.484 321 86.164 327.24 86.164 A 17.881 17.881 0 0 0 332.339 85.495 C 336.218 84.345 338.97 81.682 341.04 77.284 L 339 76.084 A 7.446 7.446 0 0 1 338.046 77.389 C 337.069 78.438 335.897 78.905 334.49 78.663 A 4.864 4.864 0 0 1 334.2 78.604 A 3.26 3.26 0 0 1 331.931 76.281 C 331.437 74.902 331.275 72.997 331.224 70.729 A 124.828 124.828 0 0 1 331.2 67.924 Z M 301.886 81.596 A 8.362 8.362 0 0 0 303.24 81.484 A 8.364 8.364 0 0 0 309.177 76.899 C 311.183 73.193 311.839 67.487 311.091 60.404 A 68.407 68.407 0 0 0 310.44 55.804 C 308.078 42.417 302.868 34.092 296.194 34.092 A 8.362 8.362 0 0 0 294.84 34.204 A 8.364 8.364 0 0 0 288.903 38.789 C 286.897 42.494 286.241 48.201 286.989 55.284 A 68.407 68.407 0 0 0 287.64 59.884 C 290.002 73.271 295.212 81.596 301.886 81.596 Z" id="4" vector-effect="non-scaling-stroke"/>
            <path d="M 373.44 29.524 A 36.164 36.164 0 0 0 357.843 32.839 C 348.32 37.375 342.287 46.274 342.24 57.709 A 32.771 32.771 0 0 0 342.24 57.844 C 342.24 71.822 351.167 82.032 364.487 85.161 A 39.148 39.148 0 0 0 373.44 86.164 C 391.251 86.164 404.245 75.002 404.516 58.375 A 32.604 32.604 0 0 0 404.52 57.844 C 404.52 43.779 395.482 33.529 382.094 30.469 A 38.838 38.838 0 0 0 373.44 29.524 Z M 376.187 81.596 A 8.099 8.099 0 0 0 377.52 81.484 C 384.84 80.164 387.36 70.204 384.84 55.804 C 382.491 42.383 377.328 34.07 370.711 34.07 A 8.278 8.278 0 0 0 369.24 34.204 A 8.021 8.021 0 0 0 364.104 37.442 C 361.498 40.941 360.572 46.973 361.326 54.7 A 68.999 68.999 0 0 0 362.04 59.884 A 63.171 63.171 0 0 0 363.644 66.806 C 366.387 76.079 370.835 81.596 376.187 81.596 Z" id="5" vector-effect="non-scaling-stroke"/>
            <circle class="red" r="8" cx="299.5" cy="58" />
            <circle class="red" r="8" cx="374" cy="58" />
        </g>
        <g id="boolean" transform="scale(1.01,1.3) translate(-407,90)">
            <path d="M 443.4 1.084 L 408.12 1.084 L 408.12 4.444 C 415.609 4.444 418.368 8.543 419.145 14.122 A 30.074 30.074 0 0 1 419.4 18.244 L 419.4 68.044 A 23.948 23.948 0 0 1 418.603 74.74 C 417.669 77.898 415.781 80.306 412.259 81.319 A 14.957 14.957 0 0 1 408.12 81.844 L 408.12 85.084 L 447.72 85.084 A 100.187 100.187 0 0 0 463.127 84.002 C 474.056 82.289 482.049 78.515 486.214 72.5 A 18.955 18.955 0 0 0 489.48 61.444 A 18.651 18.651 0 0 0 480.247 44.9 C 477.793 43.331 474.875 42.035 471.52 41.006 A 54.915 54.915 0 0 0 467.04 39.844 A 31.989 31.989 0 0 0 474.851 36.236 C 479.783 32.993 482.717 28.442 482.873 22.36 A 20.045 20.045 0 0 0 482.88 21.844 A 16.838 16.838 0 0 0 472.136 5.664 C 466.667 3.076 459.161 1.646 449.742 1.22 A 140.78 140.78 0 0 0 443.4 1.084 Z M 447.24 80.404 L 439.8 80.404 L 439.8 42.604 L 447.24 42.604 C 460.514 42.604 467.031 49.683 467.702 59.684 A 26.269 26.269 0 0 1 467.76 61.444 C 467.76 72.484 461.28 80.404 447.24 80.404 Z M 444.84 37.924 L 439.8 37.924 L 439.8 5.884 L 446.28 5.884 A 23.456 23.456 0 0 1 452.086 6.548 C 459.728 8.5 462.42 14.502 462.591 21.154 A 26.864 26.864 0 0 1 462.6 21.844 A 19.038 19.038 0 0 1 461.209 29.411 C 459.088 34.326 454.48 37.386 446.953 37.859 A 33.666 33.666 0 0 1 444.84 37.924 Z" id="6" vector-effect="non-scaling-stroke"/>
            <path d="M 525.48 29.524 A 36.164 36.164 0 0 0 509.883 32.839 C 500.36 37.375 494.327 46.274 494.28 57.709 A 32.771 32.771 0 0 0 494.28 57.844 C 494.28 71.822 503.207 82.032 516.527 85.161 A 39.148 39.148 0 0 0 525.48 86.164 C 543.291 86.164 556.285 75.002 556.556 58.375 A 32.604 32.604 0 0 0 556.56 57.844 C 556.56 43.779 547.522 33.529 534.134 30.469 A 38.838 38.838 0 0 0 525.48 29.524 Z M 528.227 81.596 A 8.099 8.099 0 0 0 529.56 81.484 C 536.88 80.164 539.4 70.204 536.88 55.804 C 534.531 42.383 529.368 34.07 522.751 34.07 A 8.278 8.278 0 0 0 521.28 34.204 A 8.021 8.021 0 0 0 516.144 37.442 C 513.538 40.941 512.612 46.973 513.366 54.7 A 68.999 68.999 0 0 0 514.08 59.884 A 63.171 63.171 0 0 0 515.684 66.806 C 518.427 76.079 522.875 81.596 528.227 81.596 Z" id="7" vector-effect="non-scaling-stroke"/>
            <path d="M 592.56 29.524 A 36.164 36.164 0 0 0 576.963 32.839 C 567.44 37.375 561.407 46.274 561.36 57.709 A 32.771 32.771 0 0 0 561.36 57.844 C 561.36 71.822 570.287 82.032 583.607 85.161 A 39.148 39.148 0 0 0 592.56 86.164 C 610.371 86.164 623.365 75.002 623.636 58.375 A 32.604 32.604 0 0 0 623.64 57.844 C 623.64 43.779 614.602 33.529 601.214 30.469 A 38.838 38.838 0 0 0 592.56 29.524 Z M 595.307 81.596 A 8.099 8.099 0 0 0 596.64 81.484 C 603.96 80.164 606.48 70.204 603.96 55.804 C 601.611 42.383 596.448 34.07 589.831 34.07 A 8.278 8.278 0 0 0 588.36 34.204 A 8.021 8.021 0 0 0 583.224 37.442 C 580.618 40.941 579.692 46.973 580.446 54.7 A 68.999 68.999 0 0 0 581.16 59.884 A 63.171 63.171 0 0 0 582.764 66.806 C 585.507 76.079 589.955 81.596 595.307 81.596 Z" id="8" vector-effect="non-scaling-stroke"/>
            <path d="M 654.6 68.044 L 654.6 1.084 L 651.36 1.084 C 644.04 7.564 631.8 10.444 624.84 10.444 L 624.84 13.804 A 14.121 14.121 0 0 1 628.719 14.286 C 632.689 15.42 634.267 18.461 634.849 22.385 A 36.072 36.072 0 0 1 635.16 27.604 L 635.16 68.044 A 31.102 31.102 0 0 1 634.636 74.447 C 633.726 78.675 631.354 81.633 625.486 81.833 A 18.96 18.96 0 0 1 624.84 81.844 L 624.84 85.084 L 664.92 85.084 L 664.92 81.844 A 14.493 14.493 0 0 1 661.079 81.384 C 657.105 80.291 655.525 77.339 654.931 73.509 A 36.287 36.287 0 0 1 654.6 68.044 Z" id="9" vector-effect="non-scaling-stroke"/>
            <path d="M 705.959 73.468 A 24.097 24.097 0 0 0 721.8 66.244 A 27.119 27.119 0 0 1 721.825 66.263 C 722.045 66.432 723.618 67.641 723.819 67.887 A 0.079 0.079 0 0 1 723.84 67.924 A 34.649 34.649 0 0 1 723.53 68.608 C 719.439 77.386 710.866 86.164 696.48 86.164 A 36.303 36.303 0 0 1 683.084 83.734 A 27.673 27.673 0 0 1 665.16 60.124 C 664.098 47.915 669.506 38.917 678.172 33.947 A 35.818 35.818 0 0 1 696 29.524 C 711.654 29.524 722.304 37.712 722.304 52.759 A 32.873 32.873 0 0 1 722.28 54.004 L 685.2 60.244 A 14.852 14.852 0 0 0 691.131 69.684 C 695.115 72.617 700.537 73.875 705.959 73.468 Z M 704.16 52.204 L 684.48 55.564 C 683.549 48.191 684.575 41.571 687.461 37.619 A 8.752 8.752 0 0 1 693.84 33.844 C 701.934 33.14 704.639 40.349 704.195 51.435 A 63.791 63.791 0 0 1 704.16 52.204 Z" id="10" vector-effect="non-scaling-stroke"/>
            <path d="M 794.4 78.844 C 791.64 80.164 789 80.044 787.68 78.484 A 4.931 4.931 0 0 1 787.062 77.313 C 786.214 75.172 785.627 71.348 785.04 67.924 C 785.04 67.924 784.44 63.124 782.76 51.004 C 780.6 35.884 772.68 29.524 753.48 29.524 A 38.181 38.181 0 0 0 750.169 29.669 C 745.285 30.096 739.627 31.544 736.071 35.032 A 11.375 11.375 0 0 0 733.32 39.244 A 11.023 11.023 0 0 0 732.827 40.785 C 732.363 42.733 732.585 44.451 733.35 45.824 A 6.262 6.262 0 0 0 736.08 48.364 A 8.786 8.786 0 0 0 739.317 49.167 C 742.128 49.309 745.197 48.064 747.24 44.404 C 742.582 40.582 746.007 33.195 753.491 33.716 A 11.158 11.158 0 0 1 753.6 33.724 A 7.306 7.306 0 0 1 760.103 37.731 C 761.401 39.906 762.184 42.721 762.718 45.535 A 53.359 53.359 0 0 1 762.84 46.204 A 14.016 14.016 0 0 1 762.95 47.047 C 763.659 54.319 756.799 52.165 745.92 54.364 C 731.76 57.244 727.32 65.404 729 74.164 C 730.679 82.92 740.033 86.161 749.988 86.164 A 28.713 28.713 0 0 0 750 86.164 C 754.596 86.164 759.615 85.319 763.6 82.01 A 16.55 16.55 0 0 0 766.92 78.244 A 10.068 10.068 0 0 0 772.741 84.211 C 775.732 85.58 779.392 86.164 782.76 86.164 A 25.963 25.963 0 0 0 786.626 85.892 C 789.616 85.442 791.814 84.469 793.45 83.259 A 11.544 11.544 0 0 0 795.36 81.484 C 795.013 80.327 794.889 80.174 794.451 78.982 A 39.604 39.604 0 0 1 794.4 78.844 Z M 756.662 78.966 A 7.111 7.111 0 0 0 758.52 78.724 C 763.767 77.521 765.529 73.132 765.529 68.006 A 24.422 24.422 0 0 0 765.48 66.484 A 257.36 257.36 0 0 0 765.395 65.485 C 765.133 62.488 764.819 59.491 764.491 57.011 A 86.033 86.033 0 0 0 764.16 54.724 A 4.222 4.222 0 0 1 762.528 56.562 C 761.351 57.305 759.408 57.922 755.76 58.924 C 751.01 60.36 747.581 64.237 747.722 69.619 A 12.979 12.979 0 0 0 747.84 71.044 A 9.378 9.378 0 0 0 749.923 75.669 C 751.658 77.743 754.19 78.966 756.662 78.966 Z" id="11" vector-effect="non-scaling-stroke"/>
            <path d="M 828.6 38.884 L 828.6 29.524 L 825.36 29.524 A 33.134 33.134 0 0 1 816.794 34.807 C 811.301 37.224 805.272 38.539 800.754 38.824 A 28.556 28.556 0 0 1 798.96 38.884 L 798.96 42.124 A 14.121 14.121 0 0 1 802.839 42.606 C 806.809 43.74 808.387 46.781 808.969 50.705 A 36.072 36.072 0 0 1 809.28 55.924 L 809.28 68.044 A 31.102 31.102 0 0 1 808.756 74.447 C 807.846 78.675 805.474 81.633 799.606 81.833 A 18.96 18.96 0 0 1 798.96 81.844 L 798.96 85.084 L 838.44 85.084 L 838.44 81.844 C 829.32 81.844 828.6 75.604 828.6 68.044 L 828.6 53.524 A 24.295 24.295 0 0 1 829.425 46.93 C 830.685 42.5 833.444 39.441 838.059 39.147 A 11.663 11.663 0 0 1 838.8 39.124 A 11.247 11.247 0 0 1 842.353 39.635 C 847.178 41.236 848.039 46.377 848.899 52.022 A 5283.886 5283.886 0 0 0 849 52.684 A 523.238 523.238 0 0 1 849.218 54.042 C 849.939 58.566 851.152 66.434 851.367 67.829 A 1642.51 1642.51 0 0 1 851.4 68.044 C 852.201 75.02 852.129 81.233 844.227 81.801 A 17.107 17.107 0 0 1 843 81.844 L 843 85.084 L 881.52 85.084 L 881.52 81.844 A 13.208 13.208 0 0 1 877.8 81.368 C 872.353 79.771 871.576 74.38 870.8 68.633 A 1298.016 1298.016 0 0 0 870.72 68.044 A 101.224 101.224 0 0 0 870.691 67.809 C 870.553 66.703 869.91 61.624 868.44 51.124 C 866.483 37.427 860.982 30.821 850.955 29.698 A 29.442 29.442 0 0 0 847.68 29.524 C 842.218 29.524 838.007 30.888 834.727 32.977 A 22.189 22.189 0 0 0 828.6 38.884 Z" id="12" vector-effect="non-scaling-stroke"/>
            <circle class="green" r="8" cx="525.5" cy="58" />
            <circle class="green" r="8" cx="593" cy="58" />
        </g>
        <g id="o" transform="scale(0.9,0.74) translate(-880,312)">
            <path d="M 927 0.004 A 46.603 46.603 0 0 0 902.991 6.314 C 890.463 13.768 882.72 27.186 882.72 43.084 A 42.828 42.828 0 0 0 893.024 71.605 C 900.911 80.637 912.825 86.164 927 86.164 A 46.66 46.66 0 0 0 950.579 80.115 C 962.808 73.024 970.539 60.273 971.124 44.963 A 49.196 49.196 0 0 0 971.16 43.084 A 42.803 42.803 0 0 0 960.224 13.845 C 952.373 5.253 940.77 0.004 927 0.004 Z M 911.341 72.481 A 18.502 18.502 0 0 0 927 81.724 C 940.68 81.724 949.56 66.484 949.56 43.084 A 87.587 87.587 0 0 0 949.484 39.404 C 948.593 18.211 939.945 4.564 927 4.564 C 916.52 4.564 908.786 13.508 905.742 28.161 A 73.678 73.678 0 0 0 904.32 43.084 C 904.32 55.561 906.879 65.718 911.341 72.481 Z" id="13" vector-effect="non-scaling-stroke"/>
        </g>
        <g id="ptimizationjl" transform="scale(0.5,0.54) translate(-809,432)">
            <path d="M 1004.4 35.764 L 1004.4 29.524 L 1001.16 29.524 A 33.134 33.134 0 0 1 992.594 34.807 C 987.101 37.224 981.072 38.539 976.554 38.824 A 28.556 28.556 0 0 1 974.76 38.884 L 974.76 42.124 A 14.121 14.121 0 0 1 978.639 42.606 C 982.609 43.74 984.187 46.781 984.769 50.705 A 36.072 36.072 0 0 1 985.08 55.924 L 985.08 96.364 A 31.102 31.102 0 0 1 984.556 102.767 C 983.646 106.995 981.274 109.953 975.406 110.153 A 18.96 18.96 0 0 1 974.76 110.164 L 974.76 113.524 L 1016.64 113.524 L 1016.64 110.164 A 15.019 15.019 0 0 1 1011.961 109.486 C 1007.892 108.157 1005.722 104.984 1004.856 100.982 A 21.925 21.925 0 0 1 1004.4 96.364 L 1004.4 78.844 A 23.64 23.64 0 0 0 1012.313 84.529 A 22.682 22.682 0 0 0 1018.2 86.164 A 30.777 30.777 0 0 0 1021.722 86.472 C 1037.954 86.94 1048.32 73.648 1048.32 57.844 A 29.741 29.741 0 0 0 1040.604 37.451 C 1035.046 31.5 1026.831 28.182 1017.12 29.524 A 22.562 22.562 0 0 0 1010.201 31.618 A 21.783 21.783 0 0 0 1004.4 35.764 Z M 1019.967 82.076 A 8.354 8.354 0 0 0 1021.32 81.964 C 1027.839 80.788 1030.456 72.759 1029.17 60.844 A 70.18 70.18 0 0 0 1028.52 56.284 A 65.857 65.857 0 0 0 1027.027 49.663 C 1024.335 40.184 1019.945 34.55 1014.51 34.55 A 8.27 8.27 0 0 0 1013.04 34.684 C 1005.72 36.004 1003.2 45.964 1005.72 60.364 A 66.528 66.528 0 0 0 1007.258 66.916 C 1010.034 76.412 1014.473 82.076 1019.967 82.076 Z" id="14" vector-effect="non-scaling-stroke"/>
            <path d="M 1078.32 67.924 L 1078.32 35.404 L 1091.04 35.404 L 1091.04 30.724 L 1078.32 30.724 L 1078.32 10.444 L 1074.6 10.444 A 24.329 24.329 0 0 1 1069.562 21.397 A 27.298 27.298 0 0 1 1049.52 30.724 L 1049.52 35.404 L 1058.88 35.404 L 1058.88 66.964 A 25.11 25.11 0 0 0 1059.937 74.461 C 1062.379 82.282 1068.78 86.164 1076.28 86.164 C 1083.835 86.164 1088.35 81.994 1091.451 76.167 A 38.595 38.595 0 0 0 1092.96 72.964 L 1090.68 71.764 A 10.18 10.18 0 0 1 1088.958 73.95 C 1087.386 75.431 1085.466 76.066 1083.24 75.724 A 5.27 5.27 0 0 1 1079.288 73.061 C 1078.758 72.066 1078.424 70.717 1078.341 68.873 A 20.952 20.952 0 0 1 1078.32 67.924 Z" id="15" vector-effect="non-scaling-stroke"/>
            <path d="M 1125 68.044 L 1125 29.524 L 1121.76 29.524 C 1114.56 36.004 1102.32 38.884 1095.36 38.884 L 1095.36 42.124 A 14.121 14.121 0 0 1 1099.239 42.606 C 1103.209 43.74 1104.787 46.781 1105.369 50.705 A 36.072 36.072 0 0 1 1105.68 55.924 L 1105.68 68.044 A 31.102 31.102 0 0 1 1105.156 74.447 C 1104.246 78.675 1101.874 81.633 1096.006 81.833 A 18.96 18.96 0 0 1 1095.36 81.844 L 1095.36 85.084 L 1134.96 85.084 L 1134.96 81.844 C 1128.275 81.844 1126.05 78.577 1125.33 73.908 A 39.42 39.42 0 0 1 1125 68.044 Z M 1113.36 23.884 A 12.25 12.25 0 0 0 1122.472 19.869 A 11.017 11.017 0 0 0 1125.36 12.484 C 1125.36 6.244 1119.96 1.084 1113.36 1.084 A 12.25 12.25 0 0 0 1104.248 5.098 A 11.017 11.017 0 0 0 1101.36 12.484 C 1101.36 18.724 1106.76 23.884 1113.36 23.884 Z" id="16" vector-effect="non-scaling-stroke"/>
            <path d="M 1168.2 38.884 L 1168.2 29.524 L 1164.96 29.524 C 1157.76 36.004 1145.52 38.884 1138.56 38.884 L 1138.56 42.124 A 14.121 14.121 0 0 1 1142.439 42.606 C 1146.409 43.74 1147.987 46.781 1148.569 50.705 A 36.072 36.072 0 0 1 1148.88 55.924 L 1148.88 68.044 A 31.102 31.102 0 0 1 1148.356 74.447 C 1147.446 78.675 1145.074 81.633 1139.206 81.833 A 18.96 18.96 0 0 1 1138.56 81.844 L 1138.56 85.084 L 1177.08 85.084 L 1177.08 81.844 C 1167.96 81.844 1168.2 75.604 1168.2 68.044 L 1168.2 53.524 A 23.608 23.608 0 0 1 1169.069 46.855 C 1170.354 42.534 1173.114 39.54 1177.699 39.264 A 11.696 11.696 0 0 1 1178.4 39.244 A 11.794 11.794 0 0 1 1182.38 39.865 C 1185.665 41.036 1187.33 43.762 1188.078 47.15 A 25.956 25.956 0 0 1 1188.6 52.684 L 1188.6 68.044 C 1188.6 75.604 1188.84 81.844 1179.72 81.844 L 1179.72 85.084 L 1218.36 85.084 L 1218.36 81.844 A 14.493 14.493 0 0 1 1214.519 81.384 C 1210.545 80.291 1208.965 77.339 1208.371 73.509 A 36.287 36.287 0 0 1 1208.04 68.044 L 1208.04 53.524 A 29.533 29.533 0 0 1 1208.648 47.163 C 1209.622 42.807 1211.877 39.729 1216.2 39.296 A 10.837 10.837 0 0 1 1217.28 39.244 A 10.417 10.417 0 0 1 1220.688 39.752 C 1225.179 41.299 1226.013 46.184 1226.847 51.678 A 1528.663 1528.663 0 0 0 1227 52.684 A 232.498 232.498 0 0 0 1227.193 54.078 C 1227.898 59.062 1229.28 68.044 1229.28 68.044 A 48.815 48.815 0 0 1 1229.607 71.325 C 1229.943 76.907 1228.776 81.293 1222.196 81.796 A 17.292 17.292 0 0 1 1220.88 81.844 L 1220.88 85.084 L 1259.52 85.084 L 1259.52 81.844 C 1253.624 81.844 1251.188 79.035 1249.976 75.136 A 40.746 40.746 0 0 1 1248.72 68.044 A 291.607 291.607 0 0 1 1248.686 67.809 C 1248.529 66.729 1247.824 61.855 1246.42 51.84 A 7008.053 7008.053 0 0 1 1246.32 51.124 A 42.546 42.546 0 0 0 1244.469 42.961 C 1241.529 34.435 1235.989 30.265 1227.895 29.614 A 29.161 29.161 0 0 0 1225.56 29.524 A 25.032 25.032 0 0 0 1219.133 30.311 C 1212.618 32.035 1208.747 36.347 1206.24 40.804 A 16.313 16.313 0 0 0 1201.027 33.565 C 1198.466 31.563 1195.289 30.351 1191.689 29.828 A 30.686 30.686 0 0 0 1187.28 29.524 C 1181.818 29.524 1177.607 30.888 1174.327 32.977 A 22.189 22.189 0 0 0 1168.2 38.884 Z" id="17" vector-effect="non-scaling-stroke"/>
            <path d="M 1292.76 68.044 L 1292.76 29.524 L 1289.52 29.524 C 1282.32 36.004 1270.08 38.884 1263.12 38.884 L 1263.12 42.124 A 14.121 14.121 0 0 1 1266.999 42.606 C 1270.969 43.74 1272.547 46.781 1273.129 50.705 A 36.072 36.072 0 0 1 1273.44 55.924 L 1273.44 68.044 A 31.102 31.102 0 0 1 1272.916 74.447 C 1272.006 78.675 1269.634 81.633 1263.766 81.833 A 18.96 18.96 0 0 1 1263.12 81.844 L 1263.12 85.084 L 1302.72 85.084 L 1302.72 81.844 C 1296.035 81.844 1293.81 78.577 1293.09 73.908 A 39.42 39.42 0 0 1 1292.76 68.044 Z M 1281.12 23.884 A 12.25 12.25 0 0 0 1290.232 19.869 A 11.017 11.017 0 0 0 1293.12 12.484 C 1293.12 6.244 1287.72 1.084 1281.12 1.084 A 12.25 12.25 0 0 0 1272.008 5.098 A 11.017 11.017 0 0 0 1269.12 12.484 C 1269.12 18.724 1274.52 23.884 1281.12 23.884 Z" id="18" vector-effect="non-scaling-stroke"/>
            <path d="M 1341.84 80.404 L 1327.92 80.404 L 1356.36 33.964 L 1356.36 30.724 L 1309.44 30.724 L 1308.12 48.844 L 1311.12 48.844 A 39.271 39.271 0 0 1 1313.556 42.595 C 1315.794 38.208 1318.862 35.404 1323.6 35.404 L 1334.76 35.404 L 1306.32 81.844 L 1306.32 85.084 L 1356 85.084 L 1357.2 66.844 L 1354.32 66.844 C 1352.797 71.559 1351.01 75.528 1348.351 77.931 A 9.334 9.334 0 0 1 1341.84 80.404 Z" id="19" vector-effect="non-scaling-stroke"/>
            <path d="M 1426.56 78.844 C 1423.8 80.164 1421.16 80.044 1419.84 78.484 A 4.931 4.931 0 0 1 1419.222 77.313 C 1418.374 75.172 1417.787 71.348 1417.2 67.924 C 1417.2 67.924 1416.6 63.124 1414.92 51.004 C 1412.76 35.884 1404.84 29.524 1385.64 29.524 A 38.181 38.181 0 0 0 1382.329 29.669 C 1377.445 30.096 1371.787 31.544 1368.231 35.032 A 11.375 11.375 0 0 0 1365.48 39.244 A 11.023 11.023 0 0 0 1364.987 40.785 C 1364.523 42.733 1364.745 44.451 1365.51 45.824 A 6.262 6.262 0 0 0 1368.24 48.364 A 8.786 8.786 0 0 0 1371.477 49.167 C 1374.288 49.309 1377.357 48.064 1379.4 44.404 C 1374.742 40.582 1378.167 33.195 1385.651 33.716 A 11.158 11.158 0 0 1 1385.76 33.724 A 7.306 7.306 0 0 1 1392.263 37.731 C 1393.561 39.906 1394.344 42.721 1394.878 45.535 A 53.359 53.359 0 0 1 1395 46.204 A 14.016 14.016 0 0 1 1395.11 47.047 C 1395.819 54.319 1388.959 52.165 1378.08 54.364 C 1363.92 57.244 1359.48 65.404 1361.16 74.164 C 1362.839 82.92 1372.193 86.161 1382.148 86.164 A 28.713 28.713 0 0 0 1382.16 86.164 C 1386.756 86.164 1391.775 85.319 1395.76 82.01 A 16.55 16.55 0 0 0 1399.08 78.244 A 10.068 10.068 0 0 0 1404.901 84.211 C 1407.892 85.58 1411.552 86.164 1414.92 86.164 A 25.963 25.963 0 0 0 1418.786 85.892 C 1421.776 85.442 1423.974 84.469 1425.61 83.259 A 11.544 11.544 0 0 0 1427.52 81.484 C 1427.173 80.327 1427.049 80.174 1426.611 78.982 A 39.604 39.604 0 0 1 1426.56 78.844 Z M 1388.822 78.966 A 7.111 7.111 0 0 0 1390.68 78.724 C 1395.927 77.521 1397.689 73.132 1397.689 68.006 A 24.422 24.422 0 0 0 1397.64 66.484 A 257.36 257.36 0 0 0 1397.555 65.485 C 1397.293 62.488 1396.979 59.491 1396.651 57.011 A 86.033 86.033 0 0 0 1396.32 54.724 A 4.222 4.222 0 0 1 1394.688 56.562 C 1393.511 57.305 1391.568 57.922 1387.92 58.924 C 1383.17 60.36 1379.741 64.237 1379.882 69.619 A 12.979 12.979 0 0 0 1380 71.044 A 9.378 9.378 0 0 0 1382.083 75.669 C 1383.818 77.743 1386.35 78.966 1388.822 78.966 Z" id="20" vector-effect="non-scaling-stroke"/>
            <path d="M 1451.52 67.924 L 1451.52 35.404 L 1464.24 35.404 L 1464.24 30.724 L 1451.52 30.724 L 1451.52 10.444 L 1447.8 10.444 A 24.329 24.329 0 0 1 1442.762 21.397 A 27.298 27.298 0 0 1 1422.72 30.724 L 1422.72 35.404 L 1432.08 35.404 L 1432.08 66.964 A 25.11 25.11 0 0 0 1433.137 74.461 C 1435.579 82.282 1441.98 86.164 1449.48 86.164 C 1457.035 86.164 1461.55 81.994 1464.651 76.167 A 38.595 38.595 0 0 0 1466.16 72.964 L 1463.88 71.764 A 10.18 10.18 0 0 1 1462.158 73.95 C 1460.586 75.431 1458.666 76.066 1456.44 75.724 A 5.27 5.27 0 0 1 1452.488 73.061 C 1451.958 72.066 1451.624 70.717 1451.541 68.873 A 20.952 20.952 0 0 1 1451.52 67.924 Z" id="21" vector-effect="non-scaling-stroke"/>
            <path d="M 1498.2 68.044 L 1498.2 29.524 L 1494.96 29.524 C 1487.76 36.004 1475.52 38.884 1468.56 38.884 L 1468.56 42.124 A 14.121 14.121 0 0 1 1472.439 42.606 C 1476.409 43.74 1477.987 46.781 1478.569 50.705 A 36.072 36.072 0 0 1 1478.88 55.924 L 1478.88 68.044 A 31.102 31.102 0 0 1 1478.356 74.447 C 1477.446 78.675 1475.074 81.633 1469.206 81.833 A 18.96 18.96 0 0 1 1468.56 81.844 L 1468.56 85.084 L 1508.16 85.084 L 1508.16 81.844 C 1501.475 81.844 1499.25 78.577 1498.53 73.908 A 39.42 39.42 0 0 1 1498.2 68.044 Z M 1486.56 23.884 A 12.25 12.25 0 0 0 1495.672 19.869 A 11.017 11.017 0 0 0 1498.56 12.484 C 1498.56 6.244 1493.16 1.084 1486.56 1.084 A 12.25 12.25 0 0 0 1477.448 5.098 A 11.017 11.017 0 0 0 1474.56 12.484 C 1474.56 18.724 1479.96 23.884 1486.56 23.884 Z" id="22" vector-effect="non-scaling-stroke"/>
            <path d="M 1540.56 29.524 A 36.164 36.164 0 0 0 1524.963 32.839 C 1515.44 37.375 1509.407 46.274 1509.36 57.709 A 32.771 32.771 0 0 0 1509.36 57.844 C 1509.36 71.822 1518.287 82.032 1531.607 85.161 A 39.148 39.148 0 0 0 1540.56 86.164 C 1558.371 86.164 1571.365 75.002 1571.636 58.375 A 32.604 32.604 0 0 0 1571.64 57.844 C 1571.64 43.779 1562.602 33.529 1549.214 30.469 A 38.838 38.838 0 0 0 1540.56 29.524 Z M 1543.307 81.596 A 8.099 8.099 0 0 0 1544.64 81.484 C 1551.96 80.164 1554.48 70.204 1551.96 55.804 C 1549.611 42.383 1544.448 34.07 1537.831 34.07 A 8.278 8.278 0 0 0 1536.36 34.204 A 8.021 8.021 0 0 0 1531.224 37.442 C 1528.618 40.941 1527.692 46.973 1528.446 54.7 A 68.999 68.999 0 0 0 1529.16 59.884 A 63.171 63.171 0 0 0 1530.764 66.806 C 1533.507 76.079 1537.955 81.596 1543.307 81.596 Z" id="23" vector-effect="non-scaling-stroke"/>
            <path d="M 1604.88 38.884 L 1604.88 29.524 L 1601.64 29.524 A 33.134 33.134 0 0 1 1593.074 34.807 C 1587.581 37.224 1581.552 38.539 1577.034 38.824 A 28.556 28.556 0 0 1 1575.24 38.884 L 1575.24 42.124 A 14.121 14.121 0 0 1 1579.119 42.606 C 1583.089 43.74 1584.667 46.781 1585.249 50.705 A 36.072 36.072 0 0 1 1585.56 55.924 L 1585.56 68.044 A 31.102 31.102 0 0 1 1585.036 74.447 C 1584.126 78.675 1581.754 81.633 1575.886 81.833 A 18.96 18.96 0 0 1 1575.24 81.844 L 1575.24 85.084 L 1614.72 85.084 L 1614.72 81.844 C 1605.6 81.844 1604.88 75.604 1604.88 68.044 L 1604.88 53.524 A 24.295 24.295 0 0 1 1605.705 46.93 C 1606.965 42.5 1609.724 39.441 1614.339 39.147 A 11.663 11.663 0 0 1 1615.08 39.124 A 11.247 11.247 0 0 1 1618.633 39.635 C 1623.458 41.236 1624.319 46.377 1625.179 52.022 A 5283.886 5283.886 0 0 0 1625.28 52.684 A 523.238 523.238 0 0 1 1625.498 54.042 C 1626.219 58.566 1627.432 66.434 1627.647 67.829 A 1642.51 1642.51 0 0 1 1627.68 68.044 C 1628.481 75.02 1628.409 81.233 1620.507 81.801 A 17.107 17.107 0 0 1 1619.28 81.844 L 1619.28 85.084 L 1657.8 85.084 L 1657.8 81.844 A 13.208 13.208 0 0 1 1654.08 81.368 C 1648.633 79.771 1647.856 74.38 1647.08 68.633 A 1298.016 1298.016 0 0 0 1647 68.044 A 101.224 101.224 0 0 0 1646.971 67.809 C 1646.833 66.703 1646.19 61.624 1644.72 51.124 C 1642.763 37.427 1637.262 30.821 1627.235 29.698 A 29.442 29.442 0 0 0 1623.96 29.524 C 1618.498 29.524 1614.287 30.888 1611.007 32.977 A 22.189 22.189 0 0 0 1604.88 38.884 Z" id="24" vector-effect="non-scaling-stroke"/>
            <path d="M 1673.64 64.324 C 1666.32 64.324 1661.4 69.124 1661.4 75.244 A 10.641 10.641 0 0 0 1669.207 85.511 A 14.754 14.754 0 0 0 1673.64 86.164 A 14.578 14.578 0 0 0 1679.334 85.073 A 10.502 10.502 0 0 0 1686 75.244 A 10.595 10.595 0 0 0 1678.425 65.07 A 14.994 14.994 0 0 0 1673.64 64.324 Z" id="25" vector-effect="non-scaling-stroke"/>
            <path d="M 1700.64 55.924 L 1700.64 82.444 C 1700.64 88.912 1702.085 93.045 1703.799 98.054 A 599.38 599.38 0 0 1 1704 98.644 A 16.477 16.477 0 0 1 1704.742 101.376 C 1705.716 106.84 1703.382 111.364 1698.12 111.364 A 7.754 7.754 0 0 1 1694.426 110.515 C 1692.709 109.588 1691.549 107.89 1691.4 105.364 A 12.949 12.949 0 0 1 1691.381 104.832 C 1691.333 101.516 1692.662 99.577 1695.182 98.828 A 8.591 8.591 0 0 1 1696.8 98.524 C 1696.8 95.044 1694.16 89.884 1687.92 89.644 A 12.299 12.299 0 0 0 1687.438 89.634 C 1681.6 89.634 1677.202 93.86 1677.708 101.12 A 17.1 17.1 0 0 0 1677.72 101.284 C 1678.509 110.754 1688.619 115.14 1696.606 115.636 A 24.444 24.444 0 0 0 1698.12 115.684 A 26.174 26.174 0 0 0 1706.697 114.397 C 1717.228 110.758 1720.08 99.746 1720.08 85.804 L 1720.08 29.524 L 1716.84 29.524 C 1709.52 36.004 1697.28 38.884 1690.32 38.884 L 1690.32 42.124 A 14.121 14.121 0 0 1 1694.199 42.606 C 1698.169 43.74 1699.747 46.781 1700.329 50.705 A 36.072 36.072 0 0 1 1700.64 55.924 Z M 1708.32 23.884 A 12.289 12.289 0 0 0 1716.372 20.949 A 11.151 11.151 0 0 0 1720.32 12.484 A 11.571 11.571 0 0 0 1710.319 1.239 A 12.843 12.843 0 0 0 1708.32 1.084 A 12.25 12.25 0 0 0 1699.208 5.098 A 11.017 11.017 0 0 0 1696.32 12.484 C 1696.32 18.724 1701.72 23.884 1708.32 23.884 Z" id="26" vector-effect="non-scaling-stroke"/>
            <path d="M 1758.48 68.044 L 1758.48 1.084 L 1755.24 1.084 C 1747.92 7.564 1735.68 10.444 1728.72 10.444 L 1728.72 13.804 A 14.121 14.121 0 0 1 1732.599 14.286 C 1736.569 15.42 1738.147 18.461 1738.729 22.385 A 36.072 36.072 0 0 1 1739.04 27.604 L 1739.04 68.044 A 31.102 31.102 0 0 1 1738.516 74.447 C 1737.606 78.675 1735.234 81.633 1729.366 81.833 A 18.96 18.96 0 0 1 1728.72 81.844 L 1728.72 85.084 L 1768.8 85.084 L 1768.8 81.844 A 14.493 14.493 0 0 1 1764.959 81.384 C 1760.985 80.291 1759.405 77.339 1758.811 73.509 A 36.287 36.287 0 0 1 1758.48 68.044 Z" id="27" vector-effect="non-scaling-stroke"/>
            <circle class="violet" r="8" cx="1016.6" cy="58" />
            <circle class="violet" r="8" cx="1540" cy="58" />
        </g>
    </g>
</svg>